<svg width="196" height="25" viewBox="0 0 196 25" fill="none" xmlns="http://www.w3.org/2000/svg">
<path d="M23.3125 17.5938C23.3125 18.5208 23.1354 19.3958 22.7812 20.2188C22.4375 21.0312 21.9583 21.7448 21.3438 22.3594C20.7396 22.9635 20.026 23.4427 19.2031 23.7969C18.3906 24.1406 17.5208 24.3125 16.5938 24.3125C15.7604 24.3125 14.9583 24.1667 14.1875 23.875C13.4271 23.5833 12.7396 23.1562 12.125 22.5938C11.5104 23.1562 10.8177 23.5833 10.0469 23.875C9.27604 24.1667 8.47396 24.3125 7.64062 24.3125C6.71354 24.3125 5.83854 24.1406 5.01562 23.7969C4.20312 23.4427 3.48958 22.9635 2.875 22.3594C2.27083 21.7448 1.79167 21.0312 1.4375 20.2188C1.09375 19.3958 0.921875 18.5208 0.921875 17.5938V1.59375H5.40625V17.5938C5.40625 17.9062 5.46354 18.2031 5.57812 18.4844C5.69271 18.7552 5.84896 18.9948 6.04688 19.2031C6.25521 19.401 6.49479 19.5573 6.76562 19.6719C7.03646 19.7865 7.32812 19.8438 7.64062 19.8438C7.95312 19.8438 8.24479 19.7865 8.51562 19.6719C8.78646 19.5573 9.02083 19.401 9.21875 19.2031C9.42708 18.9948 9.58854 18.7552 9.70312 18.4844C9.81771 18.2031 9.875 17.9062 9.875 17.5938V1.59375H14.3594V17.5938C14.3594 17.9062 14.4167 18.2031 14.5312 18.4844C14.6458 18.7552 14.8021 18.9948 15 19.2031C15.2083 19.401 15.4479 19.5573 15.7188 19.6719C15.9896 19.7865 16.2812 19.8438 16.5938 19.8438C16.9062 19.8438 17.1979 19.7865 17.4688 19.6719C17.7396 19.5573 17.974 19.401 18.1719 19.2031C18.3802 18.9948 18.5417 18.7552 18.6562 18.4844C18.7812 18.2031 18.8438 17.9062 18.8438 17.5938V1.59375H23.3125V17.5938ZM42.8281 15.4844C42.8281 16.7344 42.6042 17.901 42.1562 18.9844C41.7083 20.0573 41.099 20.9896 40.3281 21.7812C39.5573 22.5625 38.651 23.1823 37.6094 23.6406C36.5781 24.0885 35.4688 24.3125 34.2812 24.3125C33.1042 24.3125 31.9948 24.0885 30.9531 23.6406C29.9219 23.1823 29.0156 22.5625 28.2344 21.7812C27.4635 20.9896 26.8542 20.0573 26.4062 18.9844C25.9583 17.901 25.7344 16.7344 25.7344 15.4844C25.7344 14.2135 25.9583 13.0365 26.4062 11.9531C26.8542 10.8698 27.4635 9.9375 28.2344 9.15625C29.0156 8.36458 29.9219 7.74479 30.9531 7.29688C31.9948 6.84896 33.1042 6.625 34.2812 6.625C35.4688 6.625 36.5781 6.83854 37.6094 7.26562C38.651 7.68229 39.5573 8.28125 40.3281 9.0625C41.099 9.83333 41.7083 10.7656 42.1562 11.8594C42.6042 12.9427 42.8281 14.151 42.8281 15.4844ZM38.5312 15.4844C38.5312 14.7969 38.4167 14.1771 38.1875 13.625C37.9688 13.0625 37.6667 12.5833 37.2812 12.1875C36.8958 11.7812 36.4427 11.474 35.9219 11.2656C35.4115 11.0469 34.8646 10.9375 34.2812 10.9375C33.6979 10.9375 33.1458 11.0469 32.625 11.2656C32.1146 11.474 31.6667 11.7812 31.2812 12.1875C30.9062 12.5833 30.6094 13.0625 30.3906 13.625C30.1719 14.1771 30.0625 14.7969 30.0625 15.4844C30.0625 16.1302 30.1719 16.7292 30.3906 17.2812C30.6094 17.8333 30.9062 18.3125 31.2812 18.7188C31.6667 19.125 32.1146 19.4479 32.625 19.6875C33.1458 19.9167 33.6979 20.0312 34.2812 20.0312C34.8646 20.0312 35.4115 19.9219 35.9219 19.7031C36.4427 19.4844 36.8958 19.1771 37.2812 18.7812C37.6667 18.3854 37.9688 17.9062 38.1875 17.3438C38.4167 16.7812 38.5312 16.1615 38.5312 15.4844ZM49.4531 24H45.1875V7.26562H46.2188L47.625 9.25C48.3125 8.625 49.0938 8.14583 49.9688 7.8125C50.8438 7.46875 51.75 7.29688 52.6875 7.29688H56.4531V11.5469H52.6875C52.2396 11.5469 51.8177 11.6302 51.4219 11.7969C51.026 11.9635 50.6823 12.1927 50.3906 12.4844C50.099 12.776 49.8698 13.1198 49.7031 13.5156C49.5365 13.9115 49.4531 14.3333 49.4531 14.7812V24ZM62.7344 24H58.4375V0.609375H62.7344V15.3594L69.0938 7.29688H74L68.4531 14.2656L74 24H69.0938L65.7031 17.9219L62.7344 21.8594V24ZM94.0312 21.7031C92.9896 22.599 91.8229 23.2865 90.5312 23.7656C89.2396 24.2448 87.901 24.4844 86.5156 24.4844C85.4531 24.4844 84.4271 24.3438 83.4375 24.0625C82.4583 23.7917 81.5365 23.4062 80.6719 22.9062C79.8177 22.3958 79.0365 21.7865 78.3281 21.0781C77.6198 20.3698 77.0104 19.5885 76.5 18.7344C76 17.8698 75.6094 16.9479 75.3281 15.9688C75.0573 14.9792 74.9219 13.9531 74.9219 12.8906C74.9219 11.8281 75.0573 10.8021 75.3281 9.8125C75.6094 8.82292 76 7.90104 76.5 7.04688C77.0104 6.18229 77.6198 5.39583 78.3281 4.6875C79.0365 3.97917 79.8177 3.375 80.6719 2.875C81.5365 2.36458 82.4583 1.97396 83.4375 1.70312C84.4271 1.42188 85.4531 1.28125 86.5156 1.28125C87.901 1.28125 89.2396 1.52083 90.5312 2C91.8229 2.46875 92.9896 3.15625 94.0312 4.0625L91.6562 7.96875C91 7.26042 90.224 6.71875 89.3281 6.34375C88.4323 5.95833 87.4948 5.76562 86.5156 5.76562C85.526 5.76562 84.599 5.95312 83.7344 6.32812C82.8698 6.70312 82.1146 7.21354 81.4688 7.85938C80.8229 8.49479 80.3125 9.25 79.9375 10.125C79.5625 10.9896 79.375 11.9115 79.375 12.8906C79.375 13.8698 79.5625 14.7917 79.9375 15.6562C80.3125 16.5104 80.8229 17.2604 81.4688 17.9062C82.1146 18.5521 82.8698 19.0625 83.7344 19.4375C84.599 19.8125 85.526 20 86.5156 20C87.4948 20 88.4323 19.8125 89.3281 19.4375C90.224 19.0521 91 18.5052 91.6562 17.7969L94.0312 21.7031ZM111.766 15.4844C111.766 16.7344 111.542 17.901 111.094 18.9844C110.646 20.0573 110.036 20.9896 109.266 21.7812C108.495 22.5625 107.589 23.1823 106.547 23.6406C105.516 24.0885 104.406 24.3125 103.219 24.3125C102.042 24.3125 100.932 24.0885 99.8906 23.6406C98.8594 23.1823 97.9531 22.5625 97.1719 21.7812C96.401 20.9896 95.7917 20.0573 95.3438 18.9844C94.8958 17.901 94.6719 16.7344 94.6719 15.4844C94.6719 14.2135 94.8958 13.0365 95.3438 11.9531C95.7917 10.8698 96.401 9.9375 97.1719 9.15625C97.9531 8.36458 98.8594 7.74479 99.8906 7.29688C100.932 6.84896 102.042 6.625 103.219 6.625C104.406 6.625 105.516 6.83854 106.547 7.26562C107.589 7.68229 108.495 8.28125 109.266 9.0625C110.036 9.83333 110.646 10.7656 111.094 11.8594C111.542 12.9427 111.766 14.151 111.766 15.4844ZM107.469 15.4844C107.469 14.7969 107.354 14.1771 107.125 13.625C106.906 13.0625 106.604 12.5833 106.219 12.1875C105.833 11.7812 105.38 11.474 104.859 11.2656C104.349 11.0469 103.802 10.9375 103.219 10.9375C102.635 10.9375 102.083 11.0469 101.562 11.2656C101.052 11.474 100.604 11.7812 100.219 12.1875C99.8438 12.5833 99.5469 13.0625 99.3281 13.625C99.1094 14.1771 99 14.7969 99 15.4844C99 16.1302 99.1094 16.7292 99.3281 17.2812C99.5469 17.8333 99.8438 18.3125 100.219 18.7188C100.604 19.125 101.052 19.4479 101.562 19.6875C102.083 19.9167 102.635 20.0312 103.219 20.0312C103.802 20.0312 104.349 19.9219 104.859 19.7031C105.38 19.4844 105.833 19.1771 106.219 18.7812C106.604 18.3854 106.906 17.9062 107.125 17.3438C107.354 16.7812 107.469 16.1615 107.469 15.4844ZM118.391 24H114.125V7.26562H115.156L116.562 8.89062C117.25 8.26562 118.026 7.78646 118.891 7.45312C119.766 7.10938 120.677 6.9375 121.625 6.9375C122.646 6.9375 123.609 7.13542 124.516 7.53125C125.422 7.91667 126.214 8.45312 126.891 9.14062C127.568 9.81771 128.099 10.6146 128.484 11.5312C128.88 12.4375 129.078 13.4062 129.078 14.4375V24H124.812V14.4375C124.812 14 124.729 13.5885 124.562 13.2031C124.396 12.8073 124.167 12.4635 123.875 12.1719C123.583 11.8802 123.245 11.651 122.859 11.4844C122.474 11.3177 122.062 11.2344 121.625 11.2344C121.177 11.2344 120.755 11.3177 120.359 11.4844C119.964 11.651 119.62 11.8802 119.328 12.1719C119.036 12.4635 118.807 12.8073 118.641 13.2031C118.474 13.5885 118.391 14 118.391 14.4375V24ZM136.391 24H132.125V7.26562H133.156L134.562 8.89062C135.25 8.26562 136.026 7.78646 136.891 7.45312C137.766 7.10938 138.677 6.9375 139.625 6.9375C140.646 6.9375 141.609 7.13542 142.516 7.53125C143.422 7.91667 144.214 8.45312 144.891 9.14062C145.568 9.81771 146.099 10.6146 146.484 11.5312C146.88 12.4375 147.078 13.4062 147.078 14.4375V24H142.812V14.4375C142.812 14 142.729 13.5885 142.562 13.2031C142.396 12.8073 142.167 12.4635 141.875 12.1719C141.583 11.8802 141.245 11.651 140.859 11.4844C140.474 11.3177 140.062 11.2344 139.625 11.2344C139.177 11.2344 138.755 11.3177 138.359 11.4844C137.964 11.651 137.62 11.8802 137.328 12.1719C137.036 12.4635 136.807 12.8073 136.641 13.2031C136.474 13.5885 136.391 14 136.391 14.4375V24ZM156.781 19.9062C156.948 19.9583 157.115 19.9948 157.281 20.0156C157.448 20.026 157.615 20.0312 157.781 20.0312C158.198 20.0312 158.599 19.974 158.984 19.8594C159.37 19.7448 159.729 19.5833 160.062 19.375C160.406 19.1562 160.708 18.8958 160.969 18.5938C161.24 18.2812 161.458 17.9375 161.625 17.5625L164.75 20.7031C164.354 21.2656 163.896 21.7708 163.375 22.2188C162.865 22.6667 162.307 23.0469 161.703 23.3594C161.109 23.6719 160.479 23.9062 159.812 24.0625C159.156 24.2292 158.479 24.3125 157.781 24.3125C156.604 24.3125 155.495 24.0938 154.453 23.6562C153.422 23.2188 152.516 22.6094 151.734 21.8281C150.964 21.0469 150.354 20.1198 149.906 19.0469C149.458 17.9635 149.234 16.776 149.234 15.4844C149.234 14.1615 149.458 12.9531 149.906 11.8594C150.354 10.7656 150.964 9.83333 151.734 9.0625C152.516 8.29167 153.422 7.69271 154.453 7.26562C155.495 6.83854 156.604 6.625 157.781 6.625C158.479 6.625 159.161 6.70833 159.828 6.875C160.495 7.04167 161.125 7.28125 161.719 7.59375C162.323 7.90625 162.885 8.29167 163.406 8.75C163.927 9.19792 164.385 9.70312 164.781 10.2656L156.781 19.9062ZM158.969 11.1094C158.771 11.0365 158.573 10.9896 158.375 10.9688C158.188 10.9479 157.99 10.9375 157.781 10.9375C157.198 10.9375 156.646 11.0469 156.125 11.2656C155.615 11.474 155.167 11.776 154.781 12.1719C154.406 12.5677 154.109 13.0469 153.891 13.6094C153.672 14.1615 153.562 14.7865 153.562 15.4844C153.562 15.6406 153.568 15.8177 153.578 16.0156C153.599 16.2135 153.625 16.4167 153.656 16.625C153.698 16.8229 153.745 17.0156 153.797 17.2031C153.849 17.3906 153.917 17.5573 154 17.7031L158.969 11.1094ZM181.438 10.5938L178.312 13.7344C178.156 13.2969 177.943 12.9062 177.672 12.5625C177.401 12.2083 177.094 11.9115 176.75 11.6719C176.417 11.4323 176.052 11.25 175.656 11.125C175.26 11 174.854 10.9375 174.438 10.9375C173.854 10.9375 173.302 11.0573 172.781 11.2969C172.271 11.5365 171.823 11.875 171.438 12.3125C171.062 12.7396 170.766 13.25 170.547 13.8438C170.328 14.4375 170.219 15.0938 170.219 15.8125C170.219 16.3958 170.328 16.9427 170.547 17.4531C170.766 17.9635 171.062 18.4115 171.438 18.7969C171.823 19.1823 172.271 19.4844 172.781 19.7031C173.302 19.9219 173.854 20.0312 174.438 20.0312C174.854 20.0312 175.255 19.974 175.641 19.8594C176.026 19.7448 176.385 19.5833 176.719 19.375C177.062 19.1562 177.365 18.8958 177.625 18.5938C177.896 18.2812 178.115 17.9375 178.281 17.5625L181.406 20.7031C181.01 21.2656 180.552 21.7708 180.031 22.2188C179.521 22.6667 178.964 23.0469 178.359 23.3594C177.766 23.6719 177.135 23.9062 176.469 24.0625C175.812 24.2292 175.135 24.3125 174.438 24.3125C173.26 24.3125 172.151 24.0938 171.109 23.6562C170.078 23.2083 169.172 22.599 168.391 21.8281C167.62 21.0573 167.01 20.1562 166.562 19.125C166.115 18.0938 165.891 16.9896 165.891 15.8125C165.891 14.5312 166.115 13.3333 166.562 12.2188C167.01 11.1042 167.62 10.1354 168.391 9.3125C169.172 8.47917 170.078 7.82292 171.109 7.34375C172.151 6.86458 173.26 6.625 174.438 6.625C175.135 6.625 175.818 6.71354 176.484 6.89062C177.161 7.06771 177.802 7.32812 178.406 7.67188C179.021 8.00521 179.583 8.41667 180.094 8.90625C180.615 9.39583 181.062 9.95833 181.438 10.5938ZM191.922 24C190.891 24 189.922 23.8073 189.016 23.4219C188.109 23.026 187.312 22.4896 186.625 21.8125C185.948 21.125 185.411 20.3281 185.016 19.4219C184.63 18.5156 184.438 17.5469 184.438 16.5156V11.5469H182.359V7.29688H184.438V0.609375H188.688V7.29688H195.156V11.5469H188.688V16.5156C188.688 16.9635 188.771 17.3854 188.938 17.7812C189.104 18.1667 189.333 18.5052 189.625 18.7969C189.917 19.0885 190.26 19.3229 190.656 19.5C191.052 19.6667 191.474 19.75 191.922 19.75H195.156V24H191.922Z" fill="#00796B"/>
</svg>
